<svg width="32" height="32" viewBox="0 0 32 32" fill="none" xmlns="http://www.w3.org/2000/svg">
<path d="M10.8569 16C10.8569 18.8404 13.1595 21.1429 15.9998 21.1429C18.8401 21.1429 21.1426 18.8404 21.1426 16C21.1426 13.1597 18.8401 10.8572 15.9998 10.8572C13.1595 10.8572 10.8569 13.1597 10.8569 16Z" stroke="white" stroke-width="2.5" stroke-linecap="round" stroke-linejoin="round"/>
<path d="M21.1429 16V17.7143C21.1429 19.6078 22.6779 21.1429 24.5714 21.1429C25.7878 21.1429 26.8562 20.5094 27.4648 19.5545C27.8037 19.0228 28 18.3915 28 17.7143V16C28 9.37258 22.6274 4 16 4C9.37258 4 4 9.37258 4 16C4 22.6274 9.37258 28 16 28C18.5496 28 20.9134 27.2049 22.8571 25.8491" stroke="white" stroke-width="2.5" stroke-linecap="round" stroke-linejoin="round"/>
</svg>
