<svg width="32" height="32" viewBox="0 0 32 32" fill="none" xmlns="http://www.w3.org/2000/svg">
<path d="M25.8573 25.8578H21.7086V19.3606C21.7086 17.8112 21.6809 15.8168 19.5508 15.8168C17.39 15.8168 17.0594 17.5048 17.0594 19.2478V25.8573H12.9107V12.4964H16.8935V14.3223H16.9492C17.7613 12.9338 19.2714 12.1044 20.8789 12.1641C25.0838 12.1641 25.8591 14.93 25.8591 18.5282L25.8573 25.8578ZM8.22957 10.6701C6.89991 10.6703 5.82182 9.5926 5.82158 8.26291C5.82134 6.93322 6.89905 5.85511 8.2287 5.85487C9.55836 5.85463 10.6365 6.93236 10.6367 8.26204C10.6368 8.90058 10.3833 9.51301 9.93184 9.96461C9.48042 10.4162 8.86809 10.67 8.22957 10.6701ZM10.3039 25.8578H6.15089V12.4964H10.3039V25.8578ZM27.9256 2.00209H4.06615C2.9385 1.98936 2.01376 2.89265 2 4.02031V27.9793C2.01329 29.1075 2.93796 30.0117 4.06615 29.9998H27.9256C29.0561 30.0139 29.9844 29.1097 30 27.9793V4.01858C29.9839 2.8887 29.0555 1.98546 27.9256 2.00018" fill="white"/>
</svg>
